<svg width="50" height="50" viewBox="0 0 50 50" fill="none" xmlns="http://www.w3.org/2000/svg">
<path d="M25 48.3333C37.8866 48.3333 48.3333 37.8866 48.3333 25C48.3333 12.1133 37.8866 1.66663 25 1.66663C12.1133 1.66663 1.66663 12.1133 1.66663 25C1.66663 37.8866 12.1133 48.3333 25 48.3333Z" fill="white"/>
<path d="M25 27.5C29.6023 27.5 33.3333 23.7691 33.3333 19.1667C33.3333 14.5643 29.6023 10.8334 25 10.8334C20.3976 10.8334 16.6666 14.5643 16.6666 19.1667C16.6666 23.7691 20.3976 27.5 25 27.5Z" fill="#929292"/>
<mask id="mask0_66_337" style="mask-type:luminance" maskUnits="userSpaceOnUse" x="4" y="4" width="42" height="42">
<path d="M25 45.8333C36.5059 45.8333 45.8333 36.5059 45.8333 25C45.8333 13.494 36.5059 4.16663 25 4.16663C13.494 4.16663 4.16663 13.494 4.16663 25C4.16663 36.5059 13.494 45.8333 25 45.8333Z" fill="white"/>
</mask>
<g mask="url(#mask0_66_337)">
<path d="M25 61.6667C33.7445 61.6667 40.8333 54.5778 40.8333 45.8333C40.8333 37.0888 33.7445 30 25 30C16.2555 30 9.16663 37.0888 9.16663 45.8333C9.16663 54.5778 16.2555 61.6667 25 61.6667Z" fill="#929292"/>
</g>
</svg>
