<svg width="283" height="54" viewBox="0 0 283 54" fill="none" xmlns="http://www.w3.org/2000/svg">
<path d="M106.852 14.728V40H100.696V24.844L95.044 40H90.076L84.388 24.808V40H78.232V14.728H85.504L92.596 32.224L99.616 14.728H106.852ZM133.815 29.632C133.815 30.208 133.779 30.808 133.707 31.432H119.775C119.871 32.68 120.267 33.64 120.963 34.312C121.683 34.96 122.559 35.284 123.591 35.284C125.127 35.284 126.195 34.636 126.795 33.34H133.347C133.011 34.66 132.399 35.848 131.511 36.904C130.647 37.96 129.555 38.788 128.235 39.388C126.915 39.988 125.439 40.288 123.807 40.288C121.839 40.288 120.087 39.868 118.551 39.028C117.015 38.188 115.815 36.988 114.951 35.428C114.087 33.868 113.655 32.044 113.655 29.956C113.655 27.868 114.075 26.044 114.915 24.484C115.779 22.924 116.979 21.724 118.515 20.884C120.051 20.044 121.815 19.624 123.807 19.624C125.751 19.624 127.479 20.032 128.991 20.848C130.503 21.664 131.679 22.828 132.519 24.34C133.383 25.852 133.815 27.616 133.815 29.632ZM127.515 28.012C127.515 26.956 127.155 26.116 126.435 25.492C125.715 24.868 124.815 24.556 123.735 24.556C122.703 24.556 121.827 24.856 121.107 25.456C120.411 26.056 119.979 26.908 119.811 28.012H127.515ZM139.438 29.92C139.438 27.856 139.822 26.044 140.59 24.484C141.382 22.924 142.45 21.724 143.794 20.884C145.138 20.044 146.638 19.624 148.294 19.624C149.614 19.624 150.814 19.9 151.894 20.452C152.998 21.004 153.862 21.748 154.486 22.684V13.36H160.642V40H154.486V37.12C153.91 38.08 153.082 38.848 152.002 39.424C150.946 40 149.71 40.288 148.294 40.288C146.638 40.288 145.138 39.868 143.794 39.028C142.45 38.164 141.382 36.952 140.59 35.392C139.822 33.808 139.438 31.984 139.438 29.92ZM154.486 29.956C154.486 28.42 154.054 27.208 153.19 26.32C152.35 25.432 151.318 24.988 150.094 24.988C148.87 24.988 147.826 25.432 146.962 26.32C146.122 27.184 145.702 28.384 145.702 29.92C145.702 31.456 146.122 32.68 146.962 33.592C147.826 34.48 148.87 34.924 150.094 34.924C151.318 34.924 152.35 34.48 153.19 33.592C154.054 32.704 154.486 31.492 154.486 29.956ZM171.792 17.824C170.712 17.824 169.824 17.512 169.128 16.888C168.456 16.24 168.12 15.448 168.12 14.512C168.12 13.552 168.456 12.76 169.128 12.136C169.824 11.488 170.712 11.164 171.792 11.164C172.848 11.164 173.712 11.488 174.384 12.136C175.08 12.76 175.428 13.552 175.428 14.512C175.428 15.448 175.08 16.24 174.384 16.888C173.712 17.512 172.848 17.824 171.792 17.824ZM174.852 19.912V40H168.696V19.912H174.852ZM181.869 27.328C181.869 24.832 182.409 22.612 183.489 20.668C184.569 18.7 186.069 17.176 187.989 16.096C189.933 14.992 192.129 14.44 194.577 14.44C197.577 14.44 200.145 15.232 202.281 16.816C204.417 18.4 205.845 20.56 206.565 23.296H199.797C199.293 22.24 198.573 21.436 197.637 20.884C196.725 20.332 195.681 20.056 194.505 20.056C192.609 20.056 191.073 20.716 189.897 22.036C188.721 23.356 188.133 25.12 188.133 27.328C188.133 29.536 188.721 31.3 189.897 32.62C191.073 33.94 192.609 34.6 194.505 34.6C195.681 34.6 196.725 34.324 197.637 33.772C198.573 33.22 199.293 32.416 199.797 31.36H206.565C205.845 34.096 204.417 36.256 202.281 37.84C200.145 39.4 197.577 40.18 194.577 40.18C192.129 40.18 189.933 39.64 187.989 38.56C186.069 37.456 184.569 35.932 183.489 33.988C182.409 32.044 181.869 29.824 181.869 27.328ZM220.091 23.26C220.811 22.156 221.711 21.292 222.791 20.668C223.871 20.02 225.071 19.696 226.391 19.696V26.212H224.699C223.163 26.212 222.011 26.548 221.243 27.22C220.475 27.868 220.091 29.02 220.091 30.676V40H213.935V19.912H220.091V23.26ZM231.71 29.92C231.71 27.856 232.094 26.044 232.862 24.484C233.654 22.924 234.722 21.724 236.066 20.884C237.41 20.044 238.91 19.624 240.566 19.624C241.982 19.624 243.218 19.912 244.274 20.488C245.354 21.064 246.182 21.82 246.758 22.756V19.912H252.914V40H246.758V37.156C246.158 38.092 245.318 38.848 244.238 39.424C243.182 40 241.946 40.288 240.53 40.288C238.898 40.288 237.41 39.868 236.066 39.028C234.722 38.164 233.654 36.952 232.862 35.392C232.094 33.808 231.71 31.984 231.71 29.92ZM246.758 29.956C246.758 28.42 246.326 27.208 245.462 26.32C244.622 25.432 243.59 24.988 242.366 24.988C241.142 24.988 240.098 25.432 239.234 26.32C238.394 27.184 237.974 28.384 237.974 29.92C237.974 31.456 238.394 32.68 239.234 33.592C240.098 34.48 241.142 34.924 242.366 34.924C243.59 34.924 244.622 34.48 245.462 33.592C246.326 32.704 246.758 31.492 246.758 29.956ZM273.207 19.696C275.559 19.696 277.431 20.464 278.823 22C280.239 23.512 280.947 25.6 280.947 28.264V40H274.827V29.092C274.827 27.748 274.479 26.704 273.783 25.96C273.087 25.216 272.151 24.844 270.975 24.844C269.799 24.844 268.863 25.216 268.167 25.96C267.471 26.704 267.123 27.748 267.123 29.092V40H260.967V19.912H267.123V22.576C267.747 21.688 268.587 20.992 269.643 20.488C270.699 19.96 271.887 19.696 273.207 19.696Z" fill="white"/>
<path d="M29.9536 21.5357C36.5189 15.3352 44.348 18.8603 47.4419 21.3979C41.5402 11.3598 31.3643 16.826 27.0141 20.8138C25.8461 22.4109 28.4871 21.9606 29.9536 21.5357Z" fill="white"/>
<path d="M26.3677 22.704C31.2646 15.1166 39.7085 16.6727 43.3184 18.3991C35.1928 10.0583 26.6143 17.7937 23.3408 22.704C22.5874 24.5336 25.0448 23.4664 26.3677 22.704Z" fill="white"/>
<path d="M48.296 16.5188C35.7579 4.5726 25.1345 14.7699 21.3901 21.3619C23.8117 22.1152 27.0179 19.4336 28.3184 17.9986C37.2511 11.4874 42.5337 16.9 44.0583 20.4202C36.3094 17.9986 33.5202 20.7565 33.0942 22.4381C37.5067 21.4695 41.2556 23.5592 42.5785 24.7251C50.8655 29.5681 57.6458 26.743 60 24.7251C55.5337 24.7789 50.3363 19.2767 48.296 16.5188Z" fill="white"/>
<path d="M30.0461 29.6438C23.4809 35.8444 15.6518 32.3192 12.5578 29.7816C18.4595 39.8197 28.6354 34.3536 32.9857 30.3658C34.1537 28.7687 31.5126 29.219 30.0461 29.6438Z" fill="white"/>
<path d="M33.6323 28.4754C28.7354 36.0628 20.2915 34.5068 16.6816 32.7803C24.8072 41.1211 33.3857 33.3857 36.6592 28.4754C37.4126 26.6458 34.9552 27.7131 33.6323 28.4754Z" fill="white"/>
<path d="M11.7043 34.6606C24.2424 46.6068 34.8657 36.4095 38.6101 29.8176C36.1886 29.0642 32.9823 31.7458 31.6819 33.1808C22.7491 39.692 17.4666 34.2795 15.9419 30.7593C23.6908 33.1808 26.4801 30.423 26.9061 28.7414C22.4935 29.71 18.7446 27.6203 17.4217 26.4544C9.13475 21.6113 2.35447 24.4364 0.000209808 26.4544C4.46658 26.4005 9.66389 31.9028 11.7043 34.6606Z" fill="white"/>
</svg>
